Coordinates
version=1
nRows=38
nColumns=12
inDegrees=yes

Units are S.I. units (second, meters, Newtons, ...)
Angles are in degrees

endheader
time	SC_y	SC_z	SC_x	AC_y	AC_z	AC_x	GH_y	GH_z	GH_yy	EL_x	PS_y
       0.0              -45.98          7.413          3.584          56.86          7.907          16.04          -90.5         -18.59          124.6          42.94          33.51
   0.02883              -45.98          7.412          3.588          56.86          7.906          16.04         -90.48         -18.59          124.6          42.95           33.5
   0.05767              -45.98          7.411          3.592          56.86          7.905          16.03         -90.46         -18.59          124.5          42.97           33.5
    0.0865              -45.98           7.41          3.596          56.86          7.905          16.03         -90.44         -18.59          124.5          42.98           33.5
    0.1153              -45.98          7.409          3.601          56.85          7.904          16.02         -90.41         -18.59          124.4           43.0           33.5
    0.1442              -45.98          7.408          3.606          56.85          7.903          16.02         -90.39         -18.59          124.4          43.01          33.49
     0.173              -45.97          7.406          3.611          56.85          7.902          16.01         -90.36         -18.59          124.3          43.03          33.49
    0.2018              -45.97          7.405          3.617          56.84          7.901           16.0         -90.34         -18.59          124.3          43.05          33.49
    0.2307              -45.97          7.404          3.623          56.84            7.9          15.99         -90.31         -18.58          124.2          43.07          33.48
    0.2595              -45.97          7.402           3.63          56.84          7.899          15.99         -90.27         -18.58          124.1          43.09          33.48
    0.2883              -45.96            7.4          3.637          56.83          7.898          15.98         -90.24         -18.58          124.0          43.12          33.47
    0.3172              -45.96          7.398          3.645          56.83          7.897          15.97          -90.2         -18.58          124.0          43.14          33.47
     0.346              -45.96          7.396          3.653          56.83          7.896          15.96         -90.16         -18.58          123.9          43.17          33.46
    0.3748              -45.95          7.394          3.662          56.82          7.895          15.95         -90.12         -18.58          123.8           43.2          33.46
    0.4037              -45.95          7.392          3.671          56.82          7.893          15.94         -90.07         -18.58          123.7          43.23          33.45
    0.4325              -45.95          7.389          3.682          56.81          7.891          15.92         -90.02         -18.58          123.5          43.26          33.45
    0.4613              -45.94          7.386          3.693           56.8           7.89          15.91         -89.97         -18.58          123.4           43.3          33.44
    0.4902              -45.94          7.383          3.705           56.8          7.888           15.9         -89.91         -18.58          123.3          43.34          33.43
     0.519              -45.93           7.38          3.719          56.79          7.886          15.88         -89.84         -18.58          123.1          43.39          33.42
    0.5478              -45.93          7.376          3.733          56.78          7.884          15.86         -89.77         -18.58          123.0          43.43          33.42
    0.5767              -45.92          7.372           3.75          56.77          7.881          15.84          -89.7         -18.58          122.8          43.49          33.41
    0.6055              -45.91          7.368          3.767          56.76          7.878          15.82         -89.61         -18.58          122.6          43.55           33.4
    0.6344               -45.9          7.363          3.787          56.75          7.875           15.8         -89.51         -18.58          122.4          43.61          33.38
    0.6632              -45.89          7.357          3.809          56.74          7.872          15.77         -89.41         -18.58          122.1          43.68          33.37
     0.692              -45.89          7.351          3.833          56.73          7.868          15.74         -89.29         -18.58          121.9          43.76          33.36
    0.7209              -45.87          7.345           3.86          56.71          7.864          15.71         -89.16         -18.57          121.6          43.85          33.34
    0.7497              -45.86          7.337           3.89           56.7          7.859          15.68         -89.02         -18.57          121.2          43.95          33.32
    0.7785              -45.85          7.329          3.924          56.68          7.854          15.63         -88.85         -18.57          120.8          44.06           33.3
    0.8074              -45.83          7.319          3.963          56.66          7.848          15.59         -88.66         -18.57          120.4          44.19          33.28
    0.8362              -45.82          7.308          4.006          56.64          7.842          15.54         -88.45         -18.57          119.9          44.33          33.25
     0.865               -45.8          7.296          4.056          56.61          7.834          15.48         -88.21         -18.57          119.4           44.5          33.22
    0.8939              -45.77          7.282          4.114          56.58          7.825          15.41         -87.94         -18.56          118.7          44.69          33.19
    0.9227              -45.75          7.265           4.18          56.54          7.815          15.33         -87.62         -18.56          118.0           44.9          33.15
    0.9515              -45.72          7.246          4.256           56.5          7.803          15.24         -87.25         -18.56          117.1          45.16           33.1
    0.9804              -45.68          7.224          4.346          56.45          7.789          15.13         -86.81         -18.55          116.1          45.45          33.05
     1.009              -45.64          7.198          4.452           56.4          7.773           15.0          -86.3         -18.55          114.9           45.8          32.98
     1.038              -45.59          7.166          4.578          56.33          7.754          14.85         -85.69         -18.54          113.5          46.22          32.91
     1.067              -45.53          7.129          4.729          56.25          7.731          14.67         -84.96         -18.54          111.9          46.71          32.81
